<svg version="1.1" id="Layer_1" xmlns="http://www.w3.org/2000/svg" xmlns:xlink="http://www.w3.org/1999/xlink" x="0px" y="0px"
	 width="100%" viewBox="0 0 500 500" enable-background="new 0 0 500 500" xml:space="preserve">
<path fill="#DCE4B4" opacity="1.000000" stroke="none" 
	d="
M314.000000,501.000000 
	C209.333359,501.000000 105.166718,501.000000 1.000056,501.000000 
	C1.000037,334.333405 1.000037,167.666794 1.000019,1.000145 
	C167.666565,1.000097 334.333130,1.000097 500.999756,1.000048 
	C500.999847,167.666519 500.999847,334.333038 500.999939,500.999786 
	C438.833344,501.000000 376.666656,501.000000 314.000000,501.000000 
M191.379715,177.434326 
	C191.373260,179.266464 191.329910,181.099396 191.368744,182.930573 
	C191.431870,185.905792 189.953995,187.050354 187.053589,187.039078 
	C172.562149,186.982727 158.070343,186.986191 143.578827,187.027512 
	C140.599640,187.036011 139.346970,185.542969 139.284866,182.753677 
	C139.251495,181.255157 139.247742,179.755768 139.247620,178.256760 
	C139.245316,149.773102 139.253769,121.289429 139.239853,92.805771 
	C139.236084,85.087814 138.062622,83.964111 130.186584,83.938995 
	C126.522049,83.927307 122.857414,83.925385 119.192902,83.939560 
	C111.736061,83.968407 110.096222,85.576675 110.091133,93.012672 
	C110.075058,116.499184 110.071159,139.985733 110.092331,163.472244 
	C110.099541,171.466415 109.862038,179.479843 110.323853,187.450424 
	C111.133347,201.421738 118.180023,209.274460 131.724716,209.629074 
	C154.193909,210.217300 176.700272,210.200455 199.170364,209.628448 
	C212.288910,209.294510 219.222076,202.451004 220.113739,189.404739 
	C220.997757,176.470123 220.681351,163.448135 220.717361,150.463974 
	C220.728882,146.306595 218.330643,144.034775 214.082016,144.001816 
	C209.251755,143.964340 204.420700,143.947983 199.590576,143.989960 
	C193.356873,144.044144 191.496307,145.776215 191.412308,151.963242 
	C191.301498,160.123749 191.382034,168.286835 191.379715,177.434326 
M165.642990,299.218445 
	C166.450958,296.680878 167.269806,294.146729 168.064758,291.605103 
	C169.982422,285.473969 169.596313,284.894104 163.419647,284.847260 
	C158.586670,284.810577 153.729202,285.139893 148.926514,284.756500 
	C143.804047,284.347626 141.177322,286.795013 139.708237,291.244720 
	C137.986389,296.459991 136.126404,301.633575 134.563431,306.895660 
	C133.775543,309.548248 132.465515,310.719757 129.609650,310.581940 
	C125.452789,310.381348 121.278969,310.533844 117.112381,310.532104 
	C100.567390,310.525208 102.190315,309.613251 102.174728,325.814240 
	C102.168739,332.038116 103.315811,333.143829 109.410690,333.202393 
	C114.636978,333.252625 119.864120,333.212799 125.744598,333.212799 
	C124.822639,336.321350 124.267845,338.378693 123.604317,340.400360 
	C116.909096,360.799896 110.187248,381.190704 103.492920,401.590515 
	C101.214775,408.532806 102.905571,410.945221 110.048698,411.015961 
	C113.048355,411.045685 116.048553,411.023895 119.048500,411.021942 
	C128.263031,411.015930 128.771225,410.669037 131.722366,401.744324 
	C138.829163,380.252167 145.976379,358.772888 152.943802,337.235565 
	C154.216705,333.300781 156.224136,332.340210 160.002975,333.920380 
	C160.002975,337.896027 159.967621,341.716339 160.011124,345.535767 
	C160.079056,351.501953 161.481934,352.972168 167.352188,352.989594 
	C181.518494,353.031616 195.684982,353.004059 209.851410,353.004242 
	C225.118332,353.004425 225.118317,353.004272 224.668365,337.898041 
	C224.474792,331.399261 223.274933,330.211151 216.499130,330.188538 
	C203.999481,330.146881 191.499588,330.187531 178.999863,330.160461 
	C177.245392,330.156677 175.491318,329.964264 173.660797,329.854584 
	C173.660797,326.958008 173.660324,324.632019 173.660889,322.306000 
	C173.663437,311.843048 173.662872,311.847015 163.590210,310.181366 
	C163.314667,310.135803 163.090607,309.778687 162.527863,309.298157 
	C163.431747,306.290466 164.383194,303.124542 165.642990,299.218445 
M394.709961,335.578461 
	C398.168152,335.153625 399.545135,332.930267 399.602325,329.721985 
	C399.667664,326.058716 399.621490,322.392944 399.586670,318.728607 
	C399.547119,314.563568 397.416473,312.716522 393.266724,312.931244 
	C390.681213,313.065002 388.083130,312.956116 385.089203,312.956116 
	C385.089203,305.565216 385.147980,298.928101 385.071411,292.292511 
	C385.005005,286.534790 383.383514,284.998505 377.542542,284.946381 
	C373.211243,284.907715 368.879303,284.928925 364.547699,284.940033 
	C357.366180,284.958435 356.032288,286.249817 356.001556,293.308411 
	C355.973541,299.735199 355.995636,306.162201 355.995636,312.946045 
	C347.959808,312.946045 340.654755,312.925446 333.349792,312.950409 
	C319.239075,312.998657 319.673370,311.385193 319.739471,326.370789 
	C319.777100,334.900055 320.591187,335.726532 329.204956,335.735107 
	C337.974091,335.743835 346.743225,335.737030 355.955902,335.737030 
	C355.955902,352.528015 356.036530,368.649780 355.778778,384.766113 
	C355.761169,385.869324 353.305481,387.674042 351.817566,387.866150 
	C348.210968,388.331726 344.506317,388.040192 340.841187,388.048950 
	C336.851471,388.058472 334.546844,389.933502 334.431671,394.028046 
	C334.328705,397.689423 334.317841,401.355499 334.361115,405.018402 
	C334.406525,408.862549 336.451233,410.893280 340.276276,410.892731 
	C348.270813,410.891632 356.309021,411.298126 364.250153,410.616028 
	C377.731232,409.458038 384.421539,401.913269 384.977020,388.339752 
	C385.072357,386.010284 385.086823,383.676331 385.088593,381.344421 
	C385.098694,368.016296 385.093658,354.688171 385.093750,341.360046 
	C385.093781,339.611450 385.093750,337.862885 385.093750,335.683258 
	C388.568695,335.683258 391.217590,335.683258 394.709961,335.578461 
M318.969757,196.603394 
	C318.957916,187.343002 318.451172,186.714188 310.873505,186.556885 
	C303.004761,186.393539 303.002228,186.393555 303.001709,178.559204 
	C302.999878,151.260101 302.954254,123.960838 303.045929,96.662041 
	C303.060638,92.279274 302.022491,89.646935 296.923950,89.898155 
	C291.444214,90.168167 285.940552,89.927917 280.447693,89.962410 
	C274.109100,90.002220 273.265137,90.779228 273.258972,97.196312 
	C273.225220,132.318909 273.224823,167.441559 273.258484,202.564163 
	C273.264343,208.703644 274.338074,209.703552 280.643951,209.742538 
	C289.299438,209.796082 297.955475,209.759079 306.611298,209.759216 
	C318.969818,209.759415 318.969818,209.758774 318.969757,196.603394 
M273.756073,396.485321 
	C273.758789,399.316803 273.889709,402.155304 273.734161,404.978088 
	C273.499878,409.230743 275.356201,411.074860 279.619202,410.982452 
	C285.778870,410.848907 291.943817,410.984741 298.106262,410.951355 
	C315.586609,410.856659 313.787079,412.957520 313.850494,394.615082 
	C313.851654,394.282074 313.840637,393.948975 313.834625,393.615936 
	C313.770508,390.060791 312.231171,387.690552 308.417480,388.052826 
	C303.326233,388.536469 302.830017,385.765594 302.852142,381.667358 
	C302.978180,358.350037 302.913239,335.031616 302.913025,311.713593 
	C302.912964,305.384399 302.929596,299.055176 302.907379,292.726074 
	C302.881744,285.424622 302.433960,284.969116 295.364563,284.943420 
	C290.701019,284.926514 286.037292,284.925995 281.373749,284.943573 
	C274.031006,284.971222 273.768433,285.204498 273.765076,292.558502 
	C273.749390,326.869324 273.756714,361.180176 273.756073,396.485321 
M379.633667,186.038620 
	C384.300232,186.035782 388.976990,185.838852 393.630524,186.083649 
	C398.472809,186.338394 400.097321,184.180893 400.041534,179.544098 
	C399.883118,166.379623 399.995056,153.211960 399.985657,140.045563 
	C399.977600,128.712662 400.117310,117.376259 399.881195,106.047882 
	C399.655670,95.229149 395.006226,90.602356 384.218750,90.151817 
	C378.561279,89.915535 372.887451,89.996307 367.221924,90.043991 
	C354.508575,90.150978 354.117523,87.927399 354.257874,103.080360 
	C354.345093,112.498016 354.701447,113.163567 364.072510,112.866386 
	C368.916901,112.712746 370.375610,114.306465 370.319763,119.105034 
	C370.092896,138.602005 370.215881,158.103180 370.231567,177.602783 
	C370.238068,185.668320 370.584076,185.988861 379.633667,186.038620 
M198.500000,411.020081 
	C206.492371,411.017212 214.489502,410.848724 222.475220,411.077789 
	C226.802292,411.201874 228.601273,409.327515 228.623459,405.246643 
	C228.643387,401.584015 228.559433,397.917450 228.703568,394.259796 
	C228.888321,389.571686 226.833939,387.804016 222.108368,387.887634 
	C209.790710,388.105621 197.463516,387.799896 185.146652,388.039307 
	C180.676254,388.126251 179.160522,386.441162 179.461121,382.191803 
	C179.659912,379.381836 179.364426,376.538818 179.331726,373.710114 
	C179.290375,370.133362 177.425446,368.717651 173.952820,368.767975 
	C167.626968,368.859680 161.298172,368.846069 154.971848,368.771637 
	C151.360214,368.729187 149.869934,370.460754 149.906067,373.966064 
	C149.974731,380.625458 149.833008,387.287903 149.958466,393.945679 
	C150.189697,406.217224 154.804718,410.839508 167.029449,410.978149 
	C177.185150,411.093323 187.343063,411.013519 198.500000,411.020081 
M343.008759,246.366425 
	C342.593292,243.622757 343.660339,242.400391 346.539581,242.491974 
	C349.111847,242.573807 351.696289,242.273636 354.275330,242.142014 
	C354.242828,241.626465 354.210327,241.110916 354.177826,240.595367 
	C349.607452,240.595367 345.037079,240.595367 340.418762,240.595367 
	C340.418762,246.842941 340.418762,252.727814 340.418762,258.353577 
	C345.455170,258.353577 350.100891,258.353577 354.746643,258.353577 
	C354.733459,257.860565 354.720276,257.367584 354.707092,256.874573 
	C350.880005,256.874573 347.052917,256.874573 342.929413,256.874573 
	C343.041260,254.482147 343.116119,252.881332 343.201813,251.047913 
	C346.848511,250.705765 350.211182,250.390259 353.573883,250.074753 
	C353.555786,249.639847 353.537720,249.204926 353.519653,248.770020 
	C350.081482,248.265228 346.643280,247.760437 343.008759,246.366425 
M156.690811,248.036179 
	C150.902115,247.870514 156.366211,241.514359 151.759918,240.087524 
	C151.759918,246.497528 151.759918,252.676041 151.759918,258.854553 
	C152.262177,258.909332 152.764450,258.964111 153.266708,259.018890 
	C153.486465,257.760071 153.756531,256.507477 153.912659,255.240814 
	C154.088852,253.811356 154.162537,252.369278 154.322708,250.423798 
	C157.484329,250.604691 161.083328,249.774658 162.776550,251.203339 
	C164.419083,252.589249 164.104355,256.294830 164.769516,259.575043 
	C167.506241,255.024445 167.215317,242.832626 164.386627,240.056519 
	C164.048981,242.854523 163.749008,245.340225 163.422607,248.045029 
	C161.241501,248.045029 159.425888,248.045029 156.690811,248.036179 
M120.096436,240.018951 
	C116.419395,239.986618 112.048271,239.436844 111.241348,244.278030 
	C110.380745,249.441315 115.125175,249.587128 118.477715,250.719315 
	C118.634933,250.772415 118.841324,250.753189 118.955353,250.849716 
	C120.315514,252.000824 121.662491,253.167511 123.012909,254.330093 
	C121.287834,255.235397 119.507423,256.960052 117.851051,256.848206 
	C115.539490,256.692078 113.320587,255.163910 110.491325,253.985092 
	C111.399048,258.651611 114.579109,259.602417 117.596458,259.121185 
	C120.397720,258.674377 123.196075,257.066650 125.444466,255.277390 
	C125.884789,254.926971 124.273903,250.884903 122.745064,249.497726 
	C121.309875,248.195496 118.617027,248.390594 116.699081,247.466888 
	C115.572304,246.924255 114.877632,245.484344 113.988609,244.448013 
	C115.116867,243.657578 116.324936,242.117157 117.357376,242.227005 
	C119.783989,242.485245 122.126694,243.532013 124.503349,244.259674 
	C124.789536,243.937790 125.075714,243.615921 125.361900,243.294037 
	C123.875717,242.235245 122.389534,241.176437 120.096436,240.018951 
M312.105133,254.445953 
	C310.464233,252.434616 308.823334,250.423279 307.153778,248.376785 
	C309.648834,245.716309 311.856567,243.362213 314.064301,241.008118 
	C313.639709,240.551453 313.215149,240.094788 312.790588,239.638123 
	C309.768951,242.413147 306.747345,245.188171 303.483063,248.186066 
	C302.962372,244.910034 302.584534,242.532883 302.206726,240.155731 
	C301.738525,240.218704 301.270325,240.281662 300.802124,240.344620 
	C300.802124,246.521454 300.802124,252.698273 300.802124,258.875122 
	C301.276611,258.920044 301.751099,258.964966 302.225555,259.009888 
	C302.467255,257.875000 302.664093,256.728149 302.961639,255.608109 
	C303.363312,254.096039 303.842377,252.604523 304.288300,251.104202 
	C305.682800,252.089569 307.186951,252.953293 308.446167,254.088699 
	C310.347656,255.803299 312.078308,257.707458 313.881592,259.531036 
	C314.281006,259.143494 314.680450,258.755981 315.079895,258.368439 
	C314.241760,257.243286 313.403656,256.118134 312.105133,254.445953 
M263.012573,246.430649 
	C261.428864,250.475815 259.845123,254.520981 257.889832,259.515289 
	C262.428436,258.379761 262.257446,251.724701 267.092468,253.829300 
	C270.040741,255.112640 272.750885,256.943024 276.091187,258.821991 
	C274.111755,253.814621 272.492432,249.289429 270.515411,244.926315 
	C269.716309,243.162827 268.135742,241.753479 266.910797,240.182968 
	C265.847046,241.729675 264.776764,243.271973 263.725647,244.827225 
	C263.542114,245.098785 263.439117,245.424759 263.012573,246.430649 
M229.447296,255.916183 
	C229.456131,252.590393 229.179886,249.226349 229.618179,245.958160 
	C229.786667,244.701752 231.457397,243.494507 232.682251,242.586792 
	C233.469681,242.003250 234.692078,242.006638 235.719513,241.746948 
	C235.680771,241.427948 235.642044,241.108963 235.603317,240.789963 
	C230.580231,240.789963 225.557144,240.789963 220.534058,240.789963 
	C226.685455,243.843628 226.682587,243.843628 226.688126,251.057800 
	C226.689667,253.053009 226.618454,255.056122 226.782913,257.038818 
	C226.835968,257.678680 227.536133,258.264801 227.940262,258.875519 
	C228.435394,258.171692 228.930527,257.467896 229.447296,255.916183 
M379.595184,254.834015 
	C382.914703,255.431747 387.503998,253.200516 388.238190,259.709991 
	C389.825714,257.222076 390.940796,255.474503 392.055908,253.726929 
	C391.652954,253.779053 391.250000,253.831192 390.847076,253.883316 
	C390.334473,249.351196 389.821838,244.819077 389.296478,240.174210 
	C385.320831,241.865738 379.635254,249.961075 379.595184,254.834015 
M195.209335,253.327820 
	C195.209335,249.054688 195.209335,244.781555 195.209335,240.508438 
	C194.630844,240.526672 194.052368,240.544907 193.473877,240.563141 
	C193.473877,246.607483 193.473877,252.651810 193.473877,259.112457 
	C194.351318,258.525085 194.789185,258.385498 194.816483,258.188873 
	C194.996689,256.890137 195.088654,255.579117 195.209335,253.327820 
z"/>
<path fill="#6D5D4C" opacity="1.000000" stroke="none" 
	d="
M191.380005,176.941574 
	C191.382034,168.286835 191.301498,160.123749 191.412308,151.963242 
	C191.496307,145.776215 193.356873,144.044144 199.590576,143.989960 
	C204.420700,143.947983 209.251755,143.964340 214.082016,144.001816 
	C218.330643,144.034775 220.728882,146.306595 220.717361,150.463974 
	C220.681351,163.448135 220.997757,176.470123 220.113739,189.404739 
	C219.222076,202.451004 212.288910,209.294510 199.170364,209.628448 
	C176.700272,210.200455 154.193909,210.217300 131.724716,209.629074 
	C118.180023,209.274460 111.133347,201.421738 110.323853,187.450424 
	C109.862038,179.479843 110.099541,171.466415 110.092331,163.472244 
	C110.071159,139.985733 110.075058,116.499184 110.091133,93.012672 
	C110.096222,85.576675 111.736061,83.968407 119.192902,83.939560 
	C122.857414,83.925385 126.522049,83.927307 130.186584,83.938995 
	C138.062622,83.964111 139.236084,85.087814 139.239853,92.805771 
	C139.253769,121.289429 139.245316,149.773102 139.247620,178.256760 
	C139.247742,179.755768 139.251495,181.255157 139.284866,182.753677 
	C139.346970,185.542969 140.599640,187.036011 143.578827,187.027512 
	C158.070343,186.986191 172.562149,186.982727 187.053589,187.039078 
	C189.953995,187.050354 191.431870,185.905792 191.368744,182.930573 
	C191.329910,181.099396 191.373260,179.266464 191.380005,176.941574 
z"/>
<path fill="#6D5D4C" opacity="1.000000" stroke="none" 
	d="
M165.488815,299.588531 
	C164.383194,303.124542 163.431747,306.290466 162.527863,309.298157 
	C163.090607,309.778687 163.314667,310.135803 163.590210,310.181366 
	C173.662872,311.847015 173.663437,311.843048 173.660889,322.306000 
	C173.660324,324.632019 173.660797,326.958008 173.660797,329.854584 
	C175.491318,329.964264 177.245392,330.156677 178.999863,330.160461 
	C191.499588,330.187531 203.999481,330.146881 216.499130,330.188538 
	C223.274933,330.211151 224.474792,331.399261 224.668365,337.898041 
	C225.118317,353.004272 225.118332,353.004425 209.851410,353.004242 
	C195.684982,353.004059 181.518494,353.031616 167.352188,352.989594 
	C161.481934,352.972168 160.079056,351.501953 160.011124,345.535767 
	C159.967621,341.716339 160.002975,337.896027 160.002975,333.920380 
	C156.224136,332.340210 154.216705,333.300781 152.943802,337.235565 
	C145.976379,358.772888 138.829163,380.252167 131.722366,401.744324 
	C128.771225,410.669037 128.263031,411.015930 119.048500,411.021942 
	C116.048553,411.023895 113.048355,411.045685 110.048698,411.015961 
	C102.905571,410.945221 101.214775,408.532806 103.492920,401.590515 
	C110.187248,381.190704 116.909096,360.799896 123.604317,340.400360 
	C124.267845,338.378693 124.822639,336.321350 125.744598,333.212799 
	C119.864120,333.212799 114.636978,333.252625 109.410690,333.202393 
	C103.315811,333.143829 102.168739,332.038116 102.174728,325.814240 
	C102.190315,309.613251 100.567390,310.525208 117.112381,310.532104 
	C121.278969,310.533844 125.452789,310.381348 129.609650,310.581940 
	C132.465515,310.719757 133.775543,309.548248 134.563431,306.895660 
	C136.126404,301.633575 137.986389,296.459991 139.708237,291.244720 
	C141.177322,286.795013 143.804047,284.347626 148.926514,284.756500 
	C153.729202,285.139893 158.586670,284.810577 163.419647,284.847260 
	C169.596313,284.894104 169.982422,285.473969 168.064758,291.605103 
	C167.269806,294.146729 166.450958,296.680878 165.488815,299.588531 
z"/>
<path fill="#6D5D4C" opacity="1.000000" stroke="none" 
	d="
M394.288239,335.630859 
	C391.217590,335.683258 388.568695,335.683258 385.093750,335.683258 
	C385.093750,337.862885 385.093781,339.611450 385.093750,341.360046 
	C385.093658,354.688171 385.098694,368.016296 385.088593,381.344421 
	C385.086823,383.676331 385.072357,386.010284 384.977020,388.339752 
	C384.421539,401.913269 377.731232,409.458038 364.250153,410.616028 
	C356.309021,411.298126 348.270813,410.891632 340.276276,410.892731 
	C336.451233,410.893280 334.406525,408.862549 334.361115,405.018402 
	C334.317841,401.355499 334.328705,397.689423 334.431671,394.028046 
	C334.546844,389.933502 336.851471,388.058472 340.841187,388.048950 
	C344.506317,388.040192 348.210968,388.331726 351.817566,387.866150 
	C353.305481,387.674042 355.761169,385.869324 355.778778,384.766113 
	C356.036530,368.649780 355.955902,352.528015 355.955902,335.737030 
	C346.743225,335.737030 337.974091,335.743835 329.204956,335.735107 
	C320.591187,335.726532 319.777100,334.900055 319.739471,326.370789 
	C319.673370,311.385193 319.239075,312.998657 333.349792,312.950409 
	C340.654755,312.925446 347.959808,312.946045 355.995636,312.946045 
	C355.995636,306.162201 355.973541,299.735199 356.001556,293.308411 
	C356.032288,286.249817 357.366180,284.958435 364.547699,284.940033 
	C368.879303,284.928925 373.211243,284.907715 377.542542,284.946381 
	C383.383514,284.998505 385.005005,286.534790 385.071411,292.292511 
	C385.147980,298.928101 385.089203,305.565216 385.089203,312.956116 
	C388.083130,312.956116 390.681213,313.065002 393.266724,312.931244 
	C397.416473,312.716522 399.547119,314.563568 399.586670,318.728607 
	C399.621490,322.392944 399.667664,326.058716 399.602325,329.721985 
	C399.545135,332.930267 398.168152,335.153625 394.288239,335.630859 
z"/>
<path fill="#6E5E4D" opacity="1.000000" stroke="none" 
	d="
M318.969757,197.076477 
	C318.969818,209.758774 318.969818,209.759415 306.611298,209.759216 
	C297.955475,209.759079 289.299438,209.796082 280.643951,209.742538 
	C274.338074,209.703552 273.264343,208.703644 273.258484,202.564163 
	C273.224823,167.441559 273.225220,132.318909 273.258972,97.196312 
	C273.265137,90.779228 274.109100,90.002220 280.447693,89.962410 
	C285.940552,89.927917 291.444214,90.168167 296.923950,89.898155 
	C302.022491,89.646935 303.060638,92.279274 303.045929,96.662041 
	C302.954254,123.960838 302.999878,151.260101 303.001709,178.559204 
	C303.002228,186.393555 303.004761,186.393539 310.873505,186.556885 
	C318.451172,186.714188 318.957916,187.343002 318.969757,197.076477 
z"/>
<path fill="#6D5D4C" opacity="1.000000" stroke="none" 
	d="
M273.755920,395.988159 
	C273.756714,361.180176 273.749390,326.869324 273.765076,292.558502 
	C273.768433,285.204498 274.031006,284.971222 281.373749,284.943573 
	C286.037292,284.925995 290.701019,284.926514 295.364563,284.943420 
	C302.433960,284.969116 302.881744,285.424622 302.907379,292.726074 
	C302.929596,299.055176 302.912964,305.384399 302.913025,311.713593 
	C302.913239,335.031616 302.978180,358.350037 302.852142,381.667358 
	C302.830017,385.765594 303.326233,388.536469 308.417480,388.052826 
	C312.231171,387.690552 313.770508,390.060791 313.834625,393.615936 
	C313.840637,393.948975 313.851654,394.282074 313.850494,394.615082 
	C313.787079,412.957520 315.586609,410.856659 298.106262,410.951355 
	C291.943817,410.984741 285.778870,410.848907 279.619202,410.982452 
	C275.356201,411.074860 273.499878,409.230743 273.734161,404.978088 
	C273.889709,402.155304 273.758789,399.316803 273.755920,395.988159 
z"/>
<path fill="#6E5E4C" opacity="1.000000" stroke="none" 
	d="
M379.155640,186.038422 
	C370.584076,185.988861 370.238068,185.668320 370.231567,177.602783 
	C370.215881,158.103180 370.092896,138.602005 370.319763,119.105034 
	C370.375610,114.306465 368.916901,112.712746 364.072510,112.866386 
	C354.701447,113.163567 354.345093,112.498016 354.257874,103.080360 
	C354.117523,87.927399 354.508575,90.150978 367.221924,90.043991 
	C372.887451,89.996307 378.561279,89.915535 384.218750,90.151817 
	C395.006226,90.602356 399.655670,95.229149 399.881195,106.047882 
	C400.117310,117.376259 399.977600,128.712662 399.985657,140.045563 
	C399.995056,153.211960 399.883118,166.379623 400.041534,179.544098 
	C400.097321,184.180893 398.472809,186.338394 393.630524,186.083649 
	C388.976990,185.838852 384.300232,186.035782 379.155640,186.038422 
z"/>
<path fill="#6D5D4C" opacity="1.000000" stroke="none" 
	d="
M198.000000,411.020081 
	C187.343063,411.013519 177.185150,411.093323 167.029449,410.978149 
	C154.804718,410.839508 150.189697,406.217224 149.958466,393.945679 
	C149.833008,387.287903 149.974731,380.625458 149.906067,373.966064 
	C149.869934,370.460754 151.360214,368.729187 154.971848,368.771637 
	C161.298172,368.846069 167.626968,368.859680 173.952820,368.767975 
	C177.425446,368.717651 179.290375,370.133362 179.331726,373.710114 
	C179.364426,376.538818 179.659912,379.381836 179.461121,382.191803 
	C179.160522,386.441162 180.676254,388.126251 185.146652,388.039307 
	C197.463516,387.799896 209.790710,388.105621 222.108368,387.887634 
	C226.833939,387.804016 228.888321,389.571686 228.703568,394.259796 
	C228.559433,397.917450 228.643387,401.584015 228.623459,405.246643 
	C228.601273,409.327515 226.802292,411.201874 222.475220,411.077789 
	C214.489502,410.848724 206.492371,411.017212 198.000000,411.020081 
z"/>
<path fill="#796C57" opacity="1.000000" stroke="none" 
	d="
M343.106934,246.811035 
	C346.643280,247.760437 350.081482,248.265228 353.519653,248.770020 
	C353.537720,249.204926 353.555786,249.639847 353.573883,250.074753 
	C350.211182,250.390259 346.848511,250.705765 343.201813,251.047913 
	C343.116119,252.881332 343.041260,254.482147 342.929413,256.874573 
	C347.052917,256.874573 350.880005,256.874573 354.707092,256.874573 
	C354.720276,257.367584 354.733459,257.860565 354.746643,258.353577 
	C350.100891,258.353577 345.455170,258.353577 340.418762,258.353577 
	C340.418762,252.727814 340.418762,246.842941 340.418762,240.595367 
	C345.037079,240.595367 349.607452,240.595367 354.177826,240.595367 
	C354.210327,241.110916 354.242828,241.626465 354.275330,242.142014 
	C351.696289,242.273636 349.111847,242.573807 346.539581,242.491974 
	C343.660339,242.400391 342.593292,243.622757 343.106934,246.811035 
z"/>
<path fill="#776955" opacity="1.000000" stroke="none" 
	d="
M157.150543,248.040604 
	C159.425888,248.045029 161.241501,248.045029 163.422607,248.045029 
	C163.749008,245.340225 164.048981,242.854523 164.386627,240.056519 
	C167.215317,242.832626 167.506241,255.024445 164.769516,259.575043 
	C164.104355,256.294830 164.419083,252.589249 162.776550,251.203339 
	C161.083328,249.774658 157.484329,250.604691 154.322708,250.423798 
	C154.162537,252.369278 154.088852,253.811356 153.912659,255.240814 
	C153.756531,256.507477 153.486465,257.760071 153.266708,259.018890 
	C152.764450,258.964111 152.262177,258.909332 151.759918,258.854553 
	C151.759918,252.676041 151.759918,246.497528 151.759918,240.087524 
	C156.366211,241.514359 150.902115,247.870514 157.150543,248.040604 
z"/>
<path fill="#796C57" opacity="1.000000" stroke="none" 
	d="
M120.499893,240.068298 
	C122.389534,241.176437 123.875717,242.235245 125.361900,243.294037 
	C125.075714,243.615921 124.789536,243.937790 124.503349,244.259674 
	C122.126694,243.532013 119.783989,242.485245 117.357376,242.227005 
	C116.324936,242.117157 115.116867,243.657578 113.988602,244.448013 
	C114.877632,245.484344 115.572304,246.924255 116.699081,247.466888 
	C118.617027,248.390594 121.309875,248.195496 122.745064,249.497726 
	C124.273903,250.884903 125.884789,254.926971 125.444466,255.277390 
	C123.196075,257.066650 120.397720,258.674377 117.596458,259.121185 
	C114.579109,259.602417 111.399048,258.651611 110.491325,253.985092 
	C113.320587,255.163910 115.539490,256.692078 117.851051,256.848206 
	C119.507423,256.960052 121.287834,255.235397 123.012909,254.330109 
	C121.662491,253.167511 120.315514,252.000824 118.955353,250.849716 
	C118.841324,250.753189 118.634933,250.772415 118.477715,250.719315 
	C115.125175,249.587128 110.380745,249.441315 111.241348,244.278030 
	C112.048271,239.436844 116.419395,239.986618 120.499893,240.068298 
z"/>
<path fill="#7C6F5A" opacity="1.000000" stroke="none" 
	d="
M312.335327,254.719467 
	C313.403656,256.118134 314.241760,257.243286 315.079895,258.368439 
	C314.680450,258.755981 314.281006,259.143494 313.881592,259.531036 
	C312.078308,257.707458 310.347656,255.803299 308.446167,254.088699 
	C307.186951,252.953293 305.682800,252.089569 304.288269,251.104187 
	C303.842377,252.604523 303.363312,254.096039 302.961639,255.608109 
	C302.664093,256.728149 302.467255,257.875000 302.225555,259.009888 
	C301.751099,258.964966 301.276611,258.920044 300.802124,258.875122 
	C300.802124,252.698273 300.802124,246.521454 300.802124,240.344620 
	C301.270325,240.281662 301.738525,240.218704 302.206726,240.155731 
	C302.584534,242.532883 302.962372,244.910034 303.483063,248.186066 
	C306.747345,245.188171 309.768951,242.413147 312.790588,239.638123 
	C313.215149,240.094788 313.639709,240.551453 314.064301,241.008118 
	C311.856567,243.362213 309.648834,245.716309 307.153778,248.376785 
	C308.823334,250.423279 310.464233,252.434616 312.335327,254.719467 
z"/>
<path fill="#7C6F5A" opacity="1.000000" stroke="none" 
	d="
M263.155762,246.078125 
	C263.439117,245.424759 263.542114,245.098785 263.725647,244.827225 
	C264.776764,243.271973 265.847046,241.729675 266.910797,240.182968 
	C268.135742,241.753479 269.716309,243.162827 270.515411,244.926315 
	C272.492432,249.289429 274.111755,253.814621 276.091187,258.821991 
	C272.750885,256.943024 270.040741,255.112640 267.092468,253.829300 
	C262.257446,251.724701 262.428436,258.379761 257.889832,259.515289 
	C259.845123,254.520981 261.428864,250.475815 263.155762,246.078125 
M266.668854,251.684158 
	C270.766632,250.824295 270.817657,250.000168 266.741974,243.804764 
	C266.372559,246.747559 262.421722,248.587906 266.668854,251.684158 
z"/>
<path fill="#776955" opacity="1.000000" stroke="none" 
	d="
M229.436462,256.340149 
	C228.930527,257.467896 228.435394,258.171692 227.940277,258.875519 
	C227.536133,258.264801 226.835968,257.678680 226.782913,257.038818 
	C226.618454,255.056122 226.689667,253.053009 226.688126,251.057800 
	C226.682587,243.843628 226.685455,243.843628 220.534058,240.789963 
	C225.557144,240.789963 230.580231,240.789963 235.603317,240.789963 
	C235.642044,241.108963 235.680771,241.427948 235.719513,241.746948 
	C234.692078,242.006638 233.469681,242.003250 232.682251,242.586792 
	C231.457397,243.494507 229.786667,244.701752 229.618179,245.958160 
	C229.179886,249.226349 229.456131,252.590393 229.436462,256.340149 
z"/>
<path fill="#7C6F5A" opacity="1.000000" stroke="none" 
	d="
M379.284424,254.636719 
	C379.635254,249.961075 385.320831,241.865738 389.296478,240.174210 
	C389.821838,244.819077 390.334473,249.351196 390.847076,253.883316 
	C391.250000,253.831192 391.652954,253.779053 392.055908,253.726929 
	C390.940796,255.474503 389.825714,257.222076 388.238190,259.709991 
	C387.503998,253.200516 382.914703,255.431747 379.284424,254.636719 
M383.635254,249.031128 
	C383.011230,250.123886 382.387207,251.216629 381.618317,252.563110 
	C383.591980,252.563110 385.129822,252.563110 386.911255,252.563110 
	C386.911255,250.113541 386.911255,247.952835 386.911255,244.762054 
	C385.552826,246.496445 384.788849,247.471893 383.635254,249.031128 
z"/>
<path fill="#6E5E4C" opacity="1.000000" stroke="none" 
	d="
M195.209351,253.799957 
	C195.088654,255.579117 194.996689,256.890137 194.816483,258.188873 
	C194.789185,258.385498 194.351318,258.525085 193.473877,259.112457 
	C193.473877,252.651810 193.473877,246.607483 193.473877,240.563141 
	C194.052368,240.544907 194.630844,240.526672 195.209335,240.508438 
	C195.209335,244.781555 195.209335,249.054688 195.209351,253.799957 
z"/>
<path fill="#CCD0A5" opacity="1.000000" stroke="none" 
	d="
M266.297394,251.668762 
	C262.421722,248.587906 266.372559,246.747559 266.741974,243.804764 
	C270.817657,250.000168 270.766632,250.824295 266.297394,251.668762 
z"/>
<path fill="#DCE4B4" opacity="1.000000" stroke="none" 
	d="
M383.830048,248.739227 
	C384.788849,247.471893 385.552826,246.496445 386.911255,244.762054 
	C386.911255,247.952835 386.911255,250.113541 386.911255,252.563110 
	C385.129822,252.563110 383.591980,252.563110 381.618317,252.563110 
	C382.387207,251.216629 383.011230,250.123886 383.830048,248.739227 
z"/>
</svg>